OpenSim_Sub08_CSBaseline_LCS.mot
version=1
nRows=33
nColumns=11
inDegrees=no
endheader
time	Bot_Shank	2nd_Bot_Shank	2nd_Top_Shank	Top_Shank	Bot_Thigh	Med_Thigh	Top_Thigh	BNOx	BNOy	BNOZ
40.95000000	8456.04813934	8788.55046758	9291.08448113	8902.89991929	9539.60609905	10399.98801124	10855.17884253	172.70231879	-77.53215860	-85.05751935
40.96000000	8441.21420689	8774.55641192	9277.85254848	8899.59339276	9550.22062954	10399.99214496	10840.45914971	171.35551060	-77.90612013	-120.26296153
40.97000000	8425.97965029	8762.00544183	9264.63848323	8897.79252217	9558.90929062	10399.99608267	10827.96051084	169.78902029	-78.15991530	-148.98080209
40.98000000	8410.60242417	8751.59892937	9251.75428893	8897.67830720	9565.47422564	10399.99927182	10818.27109499	167.93342973	-78.29342230	-169.01278600
40.99000000	8395.33873128	8743.96672067	9239.51426993	8899.41564712	9569.75349847	10400.00121215	10811.90804027	165.72975109	-78.30683394	-178.41208701
41.00000000	8380.42668831	8739.00025542	9228.25648339	8903.00322720	9571.95600237	10400.00194285	10808.65518839	163.22667497	-78.20359068	-177.82753272
41.01000000	8366.09374220	8736.15535318	9218.33299937	8908.34167531	9572.50940009	10400.00182139	10807.86377554	160.53641651	-77.98904896	-169.43924718
41.02000000	8352.56720194	8734.88220318	9210.09606904	8915.33035196	9571.84418192	10400.00120935	10808.87944654	157.77201184	-77.66858995	-155.44714623
41.03000000	8340.07437655	8734.63099467	9203.89794355	8923.86861767	9570.39083816	10400.00046832	10811.04784621	155.04649712	-77.24759486	-138.05114572
41.04000000	8328.84257504	8734.85191687	9200.09087406	8933.85583293	9568.57985910	10399.99995988	10813.71461937	152.47290853	-76.73144488	-119.45116147
41.05000000	8319.09907633	8734.99528609	9199.02699028	8945.19131944	9566.84165633	10400.00004551	10816.22553486	150.16425719	-76.12552588	-101.84673264
41.06000000	8311.03122089	8734.68005710	9200.89722955	8957.72288838	9565.50218861	10400.00094733	10818.09091922	148.20036522	-75.44145854	-86.93753360
41.07000000	8304.70767758	8734.02627090	9205.41356815	8971.14529439	9564.57704737	10400.00247342	10819.31005985	146.56243802	-74.70938934	-74.93795851
41.08000000	8300.17517466	8733.24661160	9212.19942979	8985.12499434	9564.02444190	10400.00435528	10819.97264549	145.21344826	-73.96288990	-65.78779610
41.09000000	8297.48044043	8732.55376333	9220.87823821	8999.32844511	9563.80258149	10400.00632444	10820.16836489	144.11636863	-73.23553184	-59.42683509
41.10000000	8296.67020318	8732.16041019	9231.07341713	9013.42210356	9563.86967541	10400.00811241	10819.98690679	143.23417180	-72.56088678	-55.79486421
41.11000000	8297.79119118	8732.27923632	9242.40839028	9027.07242655	9564.18393295	10400.00945070	10819.51795992	142.52983047	-71.97252634	-54.83167217
41.12000000	8300.89013272	8733.12292582	9254.50658139	9039.94587095	9564.70356340	10400.01007082	10818.85121302	141.96631730	-71.50402212	-56.47704770
41.13000000	8306.01375609	8734.90416282	9266.99141419	9051.70889363	9565.38677605	10400.00970430	10818.07635484	141.50660499	-71.18894577	-60.67077953
41.14000000	8313.20878957	8737.83563144	9279.48631241	9062.02795145	9566.19178017	10400.00808265	10817.28307412	141.11366622	-71.06086888	-67.35265637
41.15000000	8322.52196144	8742.13001579	9291.61469977	9070.56950129	9567.07678506	10400.00493737	10816.56105959	140.75047366	-71.15336309	-76.46246695
41.16000000	8334	8748	9303	9077	9568	10400	10816	140.38000000	-71.50000000	-87.94000000
41.17000000	8347.56558480	8755.51173220	9313.25206523	9081.05745100	9568.91533672	10399.99323439	10815.66627534	139.98469861	-72.11604470	-101.48116159
41.18000000	8362.64520055	8764.14521660	9321.92646119	9082.76604386	9569.75951672	10399.98553378	10815.53303060	139.62494559	-72.94353607	-115.80632723
41.19000000	8378.54128324	8773.23392142	9328.56518200	9082.22151470	9570.46496394	10399.97802378	10815.55010203	139.38059775	-73.90620647	-129.39198976
41.20000000	8394.55626884	8782.11131490	9332.71022180	9079.51959964	9570.96410234	10399.97182999	10815.66732588	139.33151188	-74.92778825	-140.71464206
41.21000000	8409.99259334	8790.11086525	9333.90357471	9074.75603480	9571.18935586	10399.96807800	10815.83453839	139.55754477	-75.93201375	-148.25077698
41.22000000	8424.15269272	8796.56604071	9331.68723486	9068.02655629	9571.07314843	10399.96789340	10816.00157581	140.13855324	-76.84261532	-150.47688737
41.23000000	8436.33900297	8800.81030951	9325.60319637	9059.42690025	9570.54790402	10399.97240181	10816.11827439	141.15439407	-77.58332533	-145.86946610
41.24000000	8445.85396007	8802.17713986	9315.19345337	9049.05280278	9569.54604656	10399.98272881	10816.13447037	142.68492405	-78.07787610	-132.90500603
41.25000000	8452	8800	9300	9037	9568	10400	10816	144.81000000	-78.25000000	-110.06000000
41.26000000	8454.28108305	8793.91301553	9279.92529071	9023.43577973	9565.94407589	10400.02039145	10815.69387016	147.57372026	-78.03915112	-76.66366026
41.27000000	8453.00726671	8784.75294160	9256.31362126	9008.81363656	9563.82013619	10400.02028113	10815.31177023	150.87714944	-77.44767053	-35.45607654
